<?xml version="1.0" ?><!DOCTYPE svg  PUBLIC '-//W3C//DTD SVG 1.1//EN'  'http://www.w3.org/Graphics/SVG/1.1/DTD/svg11.dtd'><svg enable-background="new 0 0 512 512" id="Layer_1" version="1.1" viewBox="0 0 512 512" xml:space="preserve" xmlns="http://www.w3.org/2000/svg" xmlns:xlink="http://www.w3.org/1999/xlink"><circle cx="256" cy="256" fill="#2BDD73" id="ellipse" r="256"/><path d="M234.3,306c0,0.7,0,1.5,0,2.1c0,18.3,0,36.5,0,54.8c0,12.3-4,23.3-11.8,32.9  c-8.4,10.3-19.2,16.7-32.3,18.8c-30.1,4.7-54.7-15.5-59.9-41.3c-0.7-3.4-1.1-6.8-1-10.3c0-71.3,0-142.8,0-214.1  c0-13,4.6-24.4,13.1-34.2c8.2-9.3,18.6-15.2,30.9-17.1c16.4-2.5,31.2,1.7,43.7,12.9c8.8,7.8,14.2,17.6,16.4,29.1  c0.6,2.9,0.9,5.9,0.9,8.9c0,17.4,0,34.8,0,52.2c0,0.7-0.1,1.4,0.2,2.4c0.6-0.7,0.9-1.2,1.4-1.8c15.9-23.2,31.8-46.4,47.7-69.7  c3.4-4.9,6.7-9.9,10.1-14.8c7.7-11,18.1-17.7,31.3-20.1c14.8-2.7,28.4,0.6,40.6,9.1c11.2,7.7,18.6,18.3,21.8,31.5  c3.1,12.4,1.6,24.4-4.7,35.6c-0.6,1-1.2,2.1-2,3c-17.3,25.2-34.5,50.5-51.8,75.7c-0.1,0.1-0.2,0.2-0.2,0.3c-0.9,1.3-0.9,1.3,0.1,2.5  c2.1,2.5,4.1,5,6.2,7.6c11.3,13.8,22.6,27.6,34,41.5c8,9.8,16.2,19.5,24.1,29.4c4.8,6,7.7,12.8,9,20.4c3,19.2-3.2,35.4-17.3,48.5  c-8.6,8-19,12.8-30.6,13.9c-17.3,1.7-32.2-3.5-43.4-17.2c-19.4-23.4-38.7-47.1-58-70.7c-5.6-6.8-11.2-13.6-16.8-20.4  c-0.4-0.5-0.8-0.9-1.3-1.5C234.5,305.9,234.4,305.9,234.3,306z" fill="#FFFFFF" id="logo"/></svg>