<?xml version="1.0" encoding="UTF-8" standalone="no"?>
<!-- Created with Inkscape (http://www.inkscape.org/) -->

<svg
   xmlns:dc="http://purl.org/dc/elements/1.1/"
   xmlns:cc="http://creativecommons.org/ns#"
   xmlns:rdf="http://www.w3.org/1999/02/22-rdf-syntax-ns#"
   xmlns:svg="http://www.w3.org/2000/svg"
   xmlns="http://www.w3.org/2000/svg"
   xmlns:sodipodi="http://sodipodi.sourceforge.net/DTD/sodipodi-0.dtd"
   xmlns:inkscape="http://www.inkscape.org/namespaces/inkscape"
   width="251.92825mm"
   height="60.00037mm"
   viewBox="0 0 251.92825 60.00037"
   version="1.1"
   id="svg8"
   sodipodi:docname="logo.svg"
   inkscape:version="0.92.4 (5da689c313, 2019-01-14)"
   inkscape:export-filename="C:\Users\brett\Desktop\logo.png"
   inkscape:export-xdpi="96"
   inkscape:export-ydpi="96">
  <defs
     id="defs2" />
  <sodipodi:namedview
     id="base"
     pagecolor="#ffffff"
     bordercolor="#666666"
     borderopacity="1.0"
     inkscape:pageopacity="0.0"
     inkscape:pageshadow="2"
     inkscape:zoom="0.70710678"
     inkscape:cx="469.71862"
     inkscape:cy="118.84755"
     inkscape:document-units="mm"
     inkscape:current-layer="layer1"
     showgrid="false"
     inkscape:window-width="1920"
     inkscape:window-height="1001"
     inkscape:window-x="-9"
     inkscape:window-y="-9"
     inkscape:window-maximized="1" />
  <metadata
     id="metadata5">
    <rdf:RDF>
      <cc:Work
         rdf:about="">
        <dc:format>image/svg+xml</dc:format>
        <dc:type
           rdf:resource="http://purl.org/dc/dcmitype/StillImage" />
        <dc:title></dc:title>
      </cc:Work>
    </rdf:RDF>
  </metadata>
  <g
     inkscape:label="Layer 1"
     inkscape:groupmode="layer"
     id="layer1"
     transform="translate(22.394737,-198.89481)">
    <path
       id="path3726"
       style="fill:#c83737;fill-opacity:1;stroke-width:0.26503512"
       d="m 209.01525,234.13863 c -0.20467,-0.47456 -1.27783,-2.80383 -2.3848,-5.17614 -1.10698,-2.3723 -2.00834,-4.40328 -2.00302,-4.51328 0.005,-0.11001 0.54236,-0.53873 1.19344,-0.95273 3.27721,-2.08389 4.59033,-6.96432 2.8942,-10.75672 -0.85036,-1.90132 -2.69428,-3.76523 -4.55796,-4.60736 -1.77571,-0.80238 -5.24047,-0.80238 -7.01619,0 -1.86367,0.84213 -3.7076,2.70604 -4.55796,4.60736 -1.69613,3.7924 -0.38301,8.67283 2.8942,10.75672 0.65108,0.414 1.18813,0.84272 1.19345,0.95273 0.005,0.11 -0.89605,2.14098 -2.00303,4.51328 -1.10697,2.37231 -2.18013,4.70158 -2.3848,5.17614 l -0.37212,0.86283 h 8.73836 8.73835 z m -33.85512,13.80536 c -0.0962,-6.02325 -0.17515,-19.5233 -0.17534,-30.00011 l -3.5e-4,-19.04873 15.80885,0.005 c 15.14143,0.005 18.4373,0.13847 21.89877,0.88704 1.05576,0.22832 5.02201,1.85689 5.36813,2.20419 0.19454,0.19521 0.51387,0.35492 0.70964,0.35492 0.19576,0 0.39561,0.0896 0.44412,0.19913 0.0485,0.10951 0.80257,0.7324 1.67569,1.38419 1.92685,1.43844 2.31394,1.82808 3.83646,3.86175 0.65484,0.8747 1.27992,1.63019 1.38906,1.67885 0.10914,0.0487 0.19844,0.24922 0.19844,0.44564 0,0.19644 0.1871,0.54489 0.41577,0.77435 0.22868,0.22945 0.34532,0.41719 0.25921,0.41719 -0.0861,0 0.0836,0.47236 0.37711,1.04968 0.74298,1.46133 1.50852,3.66319 1.71191,4.92379 0.0942,0.58407 0.22039,1.36062 0.28036,1.72567 0.5087,3.09675 -0.12113,7.81274 -1.46257,10.95136 -0.54607,1.27767 -0.93827,2.32302 -0.87155,2.32302 0.0667,0 -0.0658,0.18774 -0.29447,0.4172 -0.22867,0.22945 -0.41577,0.57791 -0.41577,0.77434 0,0.19643 -0.0893,0.39696 -0.19844,0.44564 -0.10914,0.0487 -0.73422,0.80415 -1.38906,1.67884 -1.48212,1.97972 -1.86605,2.36496 -3.83902,3.85215 -0.87172,0.65708 -1.7202,1.32189 -1.88553,1.47735 -0.22035,0.20721 1.13826,2.66975 5.08992,9.22569 l 5.3905,8.94305 h -9.23966 -9.23967 l -4.15263,-7.30091 -4.15264,-7.30092 h -5.3898 -5.3898 v 7.30092 7.30091 h -8.29132 -8.29133 z"
       inkscape:connector-curvature="0" />
    <path
       id="path4576"
       style="fill:#8c8c8c;fill-opacity:1;stroke-width:0.26458335"
       d="m 34.086412,258.74785 c -7.556278,-1.07333 -13.134081,-5.01768 -16.276537,-11.50999 -3.211751,-6.63547 -3.341201,-16.52008 -0.304068,-23.21834 2.275076,-5.01757 6.712554,-9.15138 11.743778,-10.94012 5.26931,-1.87338 12.714558,-1.58004 17.519685,0.69027 4.497628,2.12503 7.333565,5.32134 8.469667,9.54594 0.366001,1.36097 0.384392,1.14426 0.401005,-4.72518 l 0.01741,-6.74128 h 2.645834 2.645833 v 23.60847 23.43753 h -2.645833 -2.645834 l -0.01458,-6.83493 -0.01458,-6.41614 -0.497673,1.89864 c -0.599223,2.28606 -0.960766,3.01666 -2.383475,4.81652 -2.136865,2.70334 -6.170184,5.10225 -10.035617,5.96891 -2.371466,0.5317 -6.442059,0.72978 -8.625041,0.4197 z m 8.201893,-4.95736 c 8.195016,-1.73592 13.369049,-8.88928 13.369049,-18.48337 0,-9.11474 -4.100147,-15.40153 -11.776498,-18.05702 -1.895256,-0.65562 -2.483916,-0.73221 -5.686002,-0.73975 -4.02182,-0.009 -5.833533,0.3581 -8.712137,1.76751 -2.389211,1.1698 -5.410258,4.19418 -6.721456,6.72887 -3.194564,6.17545 -2.977521,15.56768 0.496742,21.49561 2.099103,3.58157 6.178362,6.46036 10.306643,7.27352 2.477386,0.48798 6.457548,0.49466 8.723659,0.0146 z m 47.134547,4.86171 c -2.170631,-0.27866 -6.175455,-1.57483 -7.836329,-2.53625 -4.931738,-2.85482 -8.478764,-7.57415 -10.097626,-13.43493 -0.51312,-1.85765 -0.584663,-2.7642 -0.584663,-7.40833 0,-6.15123 0.333944,-7.8474 2.344117,-11.90625 4.001188,-8.07901 12.091731,-12.28477 22.117882,-11.49767 3.512359,0.27573 5.812187,0.87813 8.696987,2.27802 2.09457,1.01641 2.87355,1.58636 4.79684,3.50965 1.93028,1.93029 2.48845,2.69466 3.50277,4.79684 1.10569,2.29152 2.03203,5.11174 2.03203,6.18645 0,0.37802 -0.33106,0.42458 -2.55009,0.35868 l -2.55008,-0.0757 -0.36479,-1.45521 c -1.01981,-4.06816 -3.8593,-7.58987 -7.54869,-9.36233 -2.589729,-1.24416 -4.948981,-1.73979 -8.309134,-1.74558 -6.914127,-0.0119 -12.180124,3.07095 -15.125865,8.85506 -2.99733,5.8854 -2.719938,15.62 0.603263,21.17056 1.502651,2.50979 3.89164,4.75902 6.344341,5.97318 2.602352,1.28824 5.041016,1.82143 8.358199,1.82743 5.849339,0.0106 11.113746,-2.52588 13.741486,-6.62086 0.97273,-1.51587 2.10969,-4.43959 2.10969,-5.42512 0,-0.64621 0.0131,-0.64942 2.64583,-0.64942 3.02049,0 2.89644,-0.1375 2.23312,2.47535 -0.56984,2.24463 -2.50185,6.11419 -3.871,7.75308 -4.53988,5.43434 -12.24645,8.01707 -20.688288,6.93337 z m 51.593748,0.001 c -2.17063,-0.27866 -6.17545,-1.57483 -7.83633,-2.53625 -4.93173,-2.85482 -8.47876,-7.57415 -10.09762,-13.43493 -0.51312,-1.85765 -0.58466,-2.7642 -0.58466,-7.40833 0,-6.15123 0.33394,-7.8474 2.34411,-11.90625 4.01675,-8.11043 12.18506,-12.33072 22.22616,-11.48352 5.8969,0.49755 10.22855,2.54658 14.004,6.62441 2.01993,2.18171 3.76924,5.48311 4.53742,8.56327 0.49848,1.9988 0.6514,6.52602 0.29268,8.66511 l -0.21076,1.25677 h -19.16608 -19.16608 v 0.9372 c 0,1.90051 0.84947,5.06537 1.99952,7.44957 3.16774,6.56714 10.07874,9.93212 18.10662,8.81615 6.91147,-0.96078 11.96482,-5.37524 13.10392,-11.44721 l 0.17778,-0.9476 2.50012,-0.18744 c 1.37507,-0.10309 2.5712,-0.11637 2.65807,-0.0295 0.32832,0.32832 -0.79715,4.10042 -1.9063,6.38904 -1.34702,2.77946 -2.7873,4.6052 -5.08985,6.45206 -4.42618,3.5502 -11.02445,5.10915 -17.89272,4.22745 z m 20.20951,-26.6993 c 0,-1.70845 -0.66675,-4.94035 -1.34623,-6.52551 -0.6091,-1.42098 -2.48592,-4.11679 -3.58778,-5.15338 -3.25024,-3.05772 -9.60454,-4.76123 -14.64574,-3.92634 -8.01096,1.32672 -13.34879,7.06939 -14.18841,15.26451 l -0.17159,1.67479 h 16.96988 16.96987 z m -183.620847,-3.05909 v -30 h 15.7427154 15.742709 v 2.26667 2.26666 H -4.0061886 -17.103067 v 11.6 11.60001 h 11.6416704 11.641667 v 2.26666 2.26667 H -5.4613966 -17.103067 v 13.86667 13.86666 h -2.64584 -2.64583 z"
       inkscape:connector-curvature="0" />
  </g>
</svg>
